<?xml version="1.0" encoding="utf-8"?>
<!-- Generator: Adobe Illustrator 19.1.0, SVG Export Plug-In . SVG Version: 6.00 Build 0)  -->
<svg version="1.1" id="Layer_2" xmlns="http://www.w3.org/2000/svg" xmlns:xlink="http://www.w3.org/1999/xlink" x="0px" y="0px"
	 viewBox="0 0 100 100" style="enable-background:new 0 0 100 100;" xml:space="preserve">
<style type="text/css">
	.st0{fill:#3C5A99;}
	.st1{fill:#FFFFFF;}
</style>
<path id="Blue_1_" class="st0" d="M91.6,95.8c2.8,0,5.1-2.3,5.1-5.1V8.9c0-2.8-2.3-5.1-5.1-5.1H9.9c-2.8,0-5.1,2.3-5.1,5.1v81.7
	c0,2.8,2.3,5.1,5.1,5.1H91.6z"/>
<path id="f" class="st1" d="M68.2,95.8V60.2h11.9l1.8-13.9H68.2v-8.9c0-4,1.1-6.8,6.9-6.8l7.3,0V18.3c-1.3-0.2-5.6-0.5-10.7-0.5
	c-10.6,0-17.8,6.5-17.8,18.3v10.2h-12v13.9h12v35.6H68.2z"/>
</svg>
