<?xml version="1.0" encoding="utf-8"?>
<!-- Generator: Adobe Illustrator 19.1.0, SVG Export Plug-In . SVG Version: 6.00 Build 0)  -->
<svg version="1.1" xmlns="http://www.w3.org/2000/svg" xmlns:xlink="http://www.w3.org/1999/xlink" x="0px" y="0px"
	 viewBox="0 0 100 100" style="enable-background:new 0 0 100 100;" xml:space="preserve">
<style type="text/css">
	.st0{fill:#010101;}
</style>
<g id="SocialBox">
	<rect width="100" height="100"/>
</g>
<g id="SocialPinterest">
	<path d="M50,24.9c-13.8,0-24.9,11.2-24.9,24.9c0,10.2,6.1,19,14.9,22.8c-0.1-1.7,0-3.8,0.4-5.7c0.5-2,3.2-13.6,3.2-13.6
		s-0.8-1.6-0.8-3.9c0-3.7,2.1-6.5,4.8-6.5c2.3,0,3.4,1.7,3.4,3.7c0,2.3-1.5,5.7-2.2,8.9c-0.6,2.6,1.3,4.8,3.9,4.8
		c4.7,0,7.9-6.1,7.9-13.3c0-5.5-3.7-9.6-10.4-9.6c-7.6,0-12.3,5.6-12.3,11.9c0,2.2,0.6,3.7,1.6,4.9c0.5,0.5,0.5,0.8,0.4,1.4
		c-0.1,0.5-0.4,1.6-0.5,2c-0.2,0.6-0.7,0.9-1.2,0.6c-3.5-1.4-5.1-5.2-5.1-9.5c0-7.1,6-15.6,17.8-15.6c9.5,0,15.8,6.9,15.8,14.3
		c0,9.8-5.4,17.1-13.5,17.1c-2.7,0-5.2-1.5-6.1-3.1c0,0-1.4,5.7-1.8,6.9c-0.5,1.9-1.6,3.8-2.5,5.3c2.2,0.7,4.6,1,7.1,1
		C63.8,74.8,75,63.6,75,49.8C75,36.1,63.8,24.9,50,24.9"/>
</g>
<g id="SocialFacebook">
	<path d="M37.6,41.7h5.2v-5c0-2.2,0.1-5.6,1.7-7.7c1.7-2.2,4-3.8,8-3.8c6.5,0,9.2,0.9,9.2,0.9l-1.3,7.6c0,0-2.1-0.6-4.2-0.6
		c-2,0-3.8,0.7-3.8,2.7v5.8h8.2l-0.6,7.5h-7.7v25.9h-9.7V49.1h-5.2V41.7z"/>
</g>
<g id="SocialTwitter">
	<path d="M75,36.9c-1.8,0.8-3.8,1.4-5.9,1.6c2.1-1.3,3.7-3.3,4.5-5.7c-2,1.2-4.2,2-6.5,2.5c-1.9-2-4.5-3.2-7.5-3.2
		c-5.7,0-10.3,4.6-10.3,10.3c0,0.8,0.1,1.6,0.3,2.3c-8.5-0.4-16.1-4.5-21.1-10.7c-0.9,1.5-1.4,3.3-1.4,5.2c0,3.6,1.8,6.7,4.6,8.5
		c-1.7-0.1-3.3-0.5-4.6-1.3v0.1c0,5,3.5,9.1,8.2,10.1c-0.9,0.2-1.8,0.4-2.7,0.4c-0.7,0-1.3-0.1-1.9-0.2c1.3,4.1,5.1,7,9.6,7.1
		c-3.5,2.8-7.9,4.4-12.7,4.4c-0.8,0-1.6,0-2.4-0.1c4.5,2.9,9.9,4.6,15.7,4.6c18.9,0,29.2-15.6,29.2-29.2c0-0.4,0-0.9,0-1.3
		C71.9,40.7,73.6,38.9,75,36.9"/>
</g>
<g id="SocialLinkedIn">
	<path d="M36,71h-9.7V39.8H36V71z M30.9,35.9L30.9,35.9c-3.6,0-5.9-2.4-5.9-5.4c0-3.1,2.4-5.4,5.9-5.4c3.6,0,5.8,2.3,5.9,5.4
		C36.8,33.6,34.6,35.9,30.9,35.9z M74.9,71h-11V54.9c0-4.2-1.7-7.1-5.5-7.1c-2.9,0-4.5,1.9-5.3,3.8c-0.3,0.7-0.2,1.6-0.2,2.5V71
		H41.9c0,0,0.1-28.5,0-31.1h10.9v4.9c0.6-2.1,4.1-5.2,9.7-5.2c6.9,0,12.3,4.5,12.3,14.1V71z"/>
</g>
<g id="SocialEmail">
	<path class="st0" d="M13.1,27.5V76c0,1.4,1.2,2.6,2.6,2.6h65.8c1.4,0,2.6-1.2,2.6-2.6V27.5c0-1.4-1.2-2.6-2.6-2.6H15.7
		C14.3,25,13.1,26.1,13.1,27.5z M80.2,72c0.7,0.6,0.9,1.7,0.4,2.5c-0.7,1-2,1.2-2.9,0.4l-21.5-19c-1-0.9-2.5-0.9-3.4,0l-3.3,2.9
		c-0.4,0.3-0.8,0.5-1.3,0.5s-0.9-0.2-1.3-0.5l-3.2-2.9c-1-0.9-2.5-0.9-3.4,0L19.5,74.3c-0.8,0.7-2,0.6-2.7-0.2
		c-0.7-0.8-0.6-2,0.2-2.7l20-17.7c1.2-1,1.2-2.8,0-3.9L17,32.2c-0.7-0.6-0.9-1.7-0.4-2.5c0.7-1,2-1.2,2.9-0.4l27,24
		c1,0.9,2.5,0.9,3.4,0l27.8-24.6c0.9-0.8,2.3-0.6,2.9,0.4c0.5,0.8,0.3,1.9-0.4,2.5L59.6,49.9c-1.2,1-1.2,2.8,0,3.9L80.2,72z"/>
</g>
</svg>
