<?xml version="1.0" encoding="utf-8"?>
<!-- Generator: Adobe Illustrator 19.1.0, SVG Export Plug-In . SVG Version: 6.00 Build 0)  -->
<svg version="1.1" xmlns="http://www.w3.org/2000/svg" xmlns:xlink="http://www.w3.org/1999/xlink" x="0px" y="0px"
	 viewBox="0 0 100 100" style="enable-background:new 0 0 100 100;" xml:space="preserve">
<style type="text/css">
	.st0{fill:#010101;}
	.st1{fill:#020202;}
</style>
<g id="Twitter">
	<path class="st0" d="M97.7,20.9c-3.5,1.5-7.2,2.6-11.2,3.1c3.9-2.4,7-6.1,8.5-10.7c-3.7,2.2-7.9,3.9-12.3,4.8
		c-3.5-3.7-8.5-6.1-14.2-6.1c-10.7,0-19.5,8.8-19.5,19.5c0,1.5,0.2,3.1,0.4,4.4C33.3,35,19.1,27.3,9.5,15.5
		c-1.8,2.8-2.6,6.1-2.6,9.9c0,6.8,3.5,12.7,8.8,16.2c-3.1,0-6.1-1.1-8.8-2.4v0.2c0,9.4,6.8,17.3,15.5,19c-1.8,0.4-3.3,0.7-5,0.7
		c-1.3,0-2.4,0-3.7-0.4C16,66.3,23.3,72,31.8,72.2c-6.8,5.3-15.1,8.3-24.1,8.3c-1.5,0-3.1,0-4.6-0.2c8.5,5.5,18.8,8.8,30,8.8
		C69,89,88.5,59.3,88.5,33.6c0-0.9,0-1.8,0-2.6C91.8,28.2,95.1,24.7,97.7,20.9z"/>
</g>
<g id="Facebook">
	<path class="st0" d="M92.1,3.3H8.5c-2.9,0-5.2,2.3-5.2,5.2v83.6c0,2.9,2.3,5.2,5.2,5.2h45V60.9H41.3V46.7h12.2V36.3
		c0-12.1,7.4-18.7,18.2-18.7c5.2,0,9.6,0.4,10.9,0.6v12.7h-7.5c-5.9,0-7,2.8-7,6.9v9.1h14l-1.8,14.2H68.2v36.4h23.9
		c2.9,0,5.2-2.3,5.2-5.2V8.5C97.3,5.7,95,3.3,92.1,3.3z"/>
</g>
<g id="GooglePlus">
	<path d="M97.7,91.5c0-27.7,0-55.4,0-83.1c0.4-3-2.4-5.8-5.4-5.4C64.8,3,37.3,3,9.9,3c-1.2,0-2.4,0-3.5,0.4c-1.8,1-2.9,3-2.7,5
		c-0.1,27.7,0,55.4,0,83.1C3.3,94.6,6,97.3,9.1,97c27.7,0,55.4,0,83.1,0C95.3,97.3,98,94.6,97.7,91.5z M54.9,65.6
		c-5.9,7.6-16.7,9.8-25.6,6.8C20,69.3,13.2,59.9,13.4,50c-0.5-12.2,10.2-23.5,22.5-23.7c6.2-0.5,12.3,1.9,17,5.8
		c-1.9,2.1-3.9,4.2-6,6.2c-4.2-2.5-9.2-4.5-14-2.7c-7.8,2.2-12.6,11.5-9.7,19.2c2.4,8,12.1,12.4,19.8,9c4-1.4,6.6-5.1,7.7-9
		c-4.5-0.1-9.1,0-13.6-0.2c0-2.7,0-5.4,0-8.1c7.6,0,15.1,0,22.7,0C60.2,53.2,59.2,60.3,54.9,65.6z M88,53.3c-2.3,0-4.5,0-6.8,0
		c0,2.3,0,4.5,0,6.8c-2.3,0-4.5,0-6.7,0c0-2.3,0-4.5,0-6.8c-2.3,0-4.5,0-6.8,0c0-2.3,0-4.5,0-6.7c2.3,0,4.5,0,6.8,0
		c0-2.3,0-4.5,0.1-6.8c2.2,0,4.5,0,6.7,0c0,2.3,0,4.5,0,6.8c2.3,0,4.5,0,6.8,0C88,48.8,88,51.1,88,53.3z"/>
</g>
<g id="Pinterest">
	<g>
		<g>
			<path d="M50.2,3.3c-26,0-47.1,21.1-47.1,47.1c0,20,12.4,37,29.9,43.9c-0.4-3.7-0.8-9.4,0.2-13.5c0.9-3.7,5.5-23.4,5.5-23.4
				s-1.4-2.8-1.4-7c0-6.5,3.8-11.4,8.5-11.4c4,0,6,3,6,6.6c0,4-2.6,10.1-3.9,15.7c-1.1,4.7,2.4,8.5,7,8.5c8.4,0,14.8-8.8,14.8-21.6
				C69.7,36.9,61.6,29,50,29C36.6,29,28.7,39,28.7,49.4c0,4,1.6,8.4,3.5,10.7c0.4,0.5,0.4,0.9,0.3,1.4c-0.4,1.5-1.2,4.7-1.3,5.3
				c-0.2,0.9-0.7,1-1.6,0.6c-5.9-2.7-9.6-11.3-9.6-18.2c0-14.9,10.8-28.5,31.1-28.5c16.3,0,29,11.6,29,27.2
				c0,16.2-10.2,29.3-24.4,29.3c-4.8,0-9.3-2.5-10.8-5.4c0,0-2.4,9-2.9,11.2c-1.1,4.1-3.9,9.2-5.9,12.3c4.4,1.4,9.1,2.1,13.9,2.1
				c26,0,47.1-21.1,47.1-47.1C97.3,24.4,76.2,3.3,50.2,3.3z"/>
		</g>
	</g>
</g>
<g id="LinkedIn">
	<g>
		<g>
			<path d="M90.6,3H10.1c-3.8,0-7,3.1-7,6.8v80.9c0,3.8,3.1,6.8,7,6.8h80.6c3.9,0,7-3.1,7-6.8V9.8C97.6,6,94.5,3,90.6,3z M31.2,83.5
				h-14V38.4h14V83.5z M24.1,32.2c-4.5,0-8.1-3.6-8.1-8.1c0-4.5,3.6-8.1,8.1-8.1c4.5,0,8.1,3.6,8.1,8.1
				C32.3,28.6,28.6,32.2,24.1,32.2z M83.7,83.5h-14V61.6c0-5.2-0.1-12-7.3-12c-7.3,0-8.4,5.7-8.4,11.6v22.3h-14V38.4h13.4v6.2h0.2
				c1.9-3.5,6.4-7.3,13.3-7.3c14.2,0,16.8,9.3,16.8,21.5V83.5z"/>
		</g>
	</g>
</g>
<g id="Email">
	<g id="SocialEmail">
		<path class="st1" d="M3.1,19.4V84c0,1.9,1.6,3.5,3.5,3.5h87.5c1.9,0,3.5-1.6,3.5-3.5V19.4c0-1.9-1.6-3.5-3.5-3.5H6.6
			C4.7,16.1,3.1,17.6,3.1,19.4z M92.4,78.6c0.9,0.8,1.2,2.3,0.5,3.3c-0.9,1.3-2.7,1.6-3.9,0.5L60.4,57.2c-1.3-1.2-3.3-1.2-4.5,0
			l-4.4,3.9c-0.5,0.4-1.1,0.7-1.7,0.7s-1.2-0.3-1.7-0.7l-4.3-3.9c-1.3-1.2-3.3-1.2-4.5,0L11.6,81.7C10.6,82.6,9,82.5,8,81.4
			c-0.9-1.1-0.8-2.7,0.3-3.6l26.6-23.5c1.6-1.3,1.6-3.7,0-5.2L8.3,25.7c-0.9-0.8-1.2-2.3-0.5-3.3c0.9-1.3,2.7-1.6,3.9-0.5l35.9,31.9
			c1.3,1.2,3.3,1.2,4.5,0L89,21c1.2-1.1,3.1-0.8,3.9,0.5c0.7,1.1,0.4,2.5-0.5,3.3L65,49.2c-1.6,1.3-1.6,3.7,0,5.2L92.4,78.6z"/>
	</g>
</g>
</svg>
