<?xml version="1.0" standalone="no"?>
<!DOCTYPE svg PUBLIC "-//W3C//DTD SVG 20010904//EN"
 "http://www.w3.org/TR/2001/REC-SVG-20010904/DTD/svg10.dtd">
<svg version="1.0" xmlns="http://www.w3.org/2000/svg"
 width="300.000000pt" height="300.000000pt" viewBox="0 0 300.000000 300.000000"
 preserveAspectRatio="xMidYMid meet">
<metadata>
Created by potrace 1.11, written by Peter Selinger 2001-2013
</metadata>
<g transform="translate(0.000000,300.000000) scale(0.100000,-0.100000)"
fill="#000000" stroke="none">
<path d="M1275 2859 c3 -56 8 -106 11 -110 4 -7 -55 -60 -145 -130 l-34 -27
94 -21 c52 -12 101 -24 111 -27 9 -3 33 -47 58 -109 l42 -105 56 93 c30 50 56
94 58 96 3 4 56 8 144 11 36 2 69 5 73 7 7 4 -103 137 -128 155 -6 5 0 46 18
114 15 58 26 108 24 110 -2 2 -48 -14 -101 -36 -110 -46 -95 -48 -214 32 l-74
50 7 -103z"/>
<path d="M1810 2498 l-31 -66 -64 -7 c-39 -4 -65 -11 -65 -18 0 -7 21 -30 46
-51 44 -38 45 -41 39 -85 -3 -25 -8 -59 -11 -75 l-6 -29 64 35 64 35 57 -29
c52 -26 86 -30 73 -9 -3 4 -8 23 -11 42 -3 19 -8 42 -11 53 -4 13 9 33 46 71
l53 53 -49 7 c-95 12 -98 14 -118 58 -40 88 -42 88 -76 15z"/>
<path d="M2064 2123 c-15 -26 -26 -33 -50 -33 -42 0 -46 -7 -21 -37 25 -28 27
-38 15 -70 -8 -26 -1 -28 35 -12 19 9 31 7 55 -5 17 -9 33 -16 34 -16 2 0 2
16 0 35 -3 29 1 39 22 56 28 22 27 31 0 35 -32 5 -44 14 -57 46 l-14 33 -19
-32z"/>
<path d="M1847 2090 c-11 -17 -23 -21 -41 -18 -29 6 -31 0 -15 -35 8 -18 8
-30 0 -46 -11 -19 -10 -20 19 -14 22 4 36 0 50 -12 11 -10 20 -16 21 -14 0 2
2 15 3 28 2 13 13 31 26 41 l23 18 -22 7 c-13 4 -28 21 -35 37 l-13 30 -16
-22z"/>
<path d="M1010 2008 c-160 -12 -271 -50 -380 -131 -66 -49 -76 -61 -141 -157
-114 -171 -113 -310 4 -437 65 -71 144 -103 317 -128 25 -4 70 -11 100 -15 69
-10 261 -10 326 0 27 4 72 11 99 14 144 19 487 127 803 252 189 75 452 202
459 222 10 25 -15 59 -60 80 -122 57 -624 187 -917 236 -19 3 -47 8 -63 11
-45 8 -140 25 -172 30 -16 3 -42 8 -56 11 -23 4 -113 13 -184 17 -16 1 -77 -1
-135 -5z m495 -207 c-4 -9 -9 -21 -12 -28 -3 -7 5 -10 24 -8 21 3 34 -4 54
-27 l26 -31 7 36 c10 52 38 54 187 17 135 -34 281 -77 317 -93 32 -15 27 -42
-10 -61 -18 -9 -40 -21 -48 -26 -44 -28 -328 -119 -347 -112 -7 2 -13 10 -13
18 0 18 -8 18 -26 -1 -8 -8 -22 -11 -30 -8 -14 5 -15 3 -5 -14 11 -22 12 -22
-144 -48 -39 -7 -250 -6 -295 0 -113 17 -209 51 -247 87 -35 33 -32 103 6 155
59 82 166 128 351 152 119 16 130 16 173 12 31 -3 37 -6 32 -20z"/>
<path d="M1755 1680 c-6 -18 -30 -26 -60 -20 -5 1 0 -9 11 -22 16 -18 20 -29
14 -50 -9 -31 -7 -33 22 -17 15 8 27 8 44 0 22 -10 24 -9 24 20 0 17 6 32 15
35 22 9 18 21 -9 28 -14 3 -28 15 -31 26 -8 26 -22 26 -30 0z"/>
<path d="M1496 1669 c-11 -16 -22 -20 -40 -17 -29 6 -32 0 -12 -27 10 -14 11
-26 5 -43 -12 -32 -12 -33 16 -26 16 4 34 0 50 -10 26 -17 29 -13 26 24 -1 8
11 22 25 31 l27 16 -29 14 c-17 8 -30 24 -32 37 -4 28 -17 28 -36 1z"/>
<path d="M2138 1096 c-64 -56 -271 -145 -378 -162 -19 -3 -38 -8 -41 -10 -13
-8 -148 -18 -234 -18 -198 0 -356 40 -533 134 -41 22 -76 39 -77 38 -2 -2 -6
-43 -9 -93 -11 -148 -19 -231 -31 -340 -3 -22 -13 -80 -22 -128 -16 -84 -16
-90 2 -145 16 -45 34 -72 90 -127 86 -86 165 -127 315 -164 133 -32 326 -36
471 -10 253 46 406 113 511 221 91 96 114 185 80 315 -18 66 -62 277 -76 364
-10 60 -20 144 -18 152 4 15 -14 5 -50 -27z"/>
</g>
</svg>
