<?xml version="1.0" encoding="utf-8"?>
<!-- Generator: Adobe Illustrator 19.1.0, SVG Export Plug-In . SVG Version: 6.00 Build 0)  -->
<!DOCTYPE svg PUBLIC "-//W3C//DTD SVG 1.1//EN" "http://www.w3.org/Graphics/SVG/1.1/DTD/svg11.dtd">
<svg version="1.1" id="Layer_3" xmlns="http://www.w3.org/2000/svg" xmlns:xlink="http://www.w3.org/1999/xlink" x="0px" y="0px"
	 viewBox="0 0 100 100" style="enable-background:new 0 0 100 100;" xml:space="preserve">
<g transform="matrix(5,0,0,5,-2905,-10432.031)">
	<path d="M591.7,2087.6c-1.7,0-3.3,0.4-4.8,1.3c-1.5,0.9-2.7,2.1-3.6,3.6c-0.9,1.5-1.3,3.1-1.3,4.7c0,2.3,0.8,4.2,2.5,5.7
		c1.7,1.5,3.9,2.3,6.6,2.3c1.8,0,3.4-0.3,4.7-0.9c0.4-0.2,0.6-0.6,0.5-1.1c-0.2-0.4-0.6-0.6-1.1-0.5c-1.2,0.5-2.6,0.8-4.1,0.8
		c-1.2,0-2.3-0.3-3.4-0.8c-1.1-0.5-2-1.3-2.7-2.3c-0.7-1-1-2.1-1-3.3c0-1.3,0.3-2.5,1-3.7c0.7-1.2,1.6-2.2,2.8-3
		c1.2-0.8,2.5-1.2,3.8-1.2c1.8,0,3.3,0.6,4.7,1.7c1.4,1.2,2.1,2.5,2.1,4c0,1.2-0.3,2.3-1,3.2c-0.7,0.9-1.4,1.4-2.1,1.4
		c-0.6,0-1-0.3-1-0.9c0-0.2,0-0.5,0.1-0.8l1.3-4.7c0.1-0.5-0.2-0.9-0.7-0.9s-1,0.4-1.2,0.9l-0.1,0.3c-0.2-0.5-0.5-0.9-0.9-1.1
		c-0.3-0.2-0.8-0.3-1.3-0.3c-0.9,0-1.8,0.2-2.5,0.7c-0.7,0.5-1.5,1.3-1.9,2.1c-0.5,1.1-0.7,1.8-0.7,3c0,0.9,0.3,1.8,1,2.4
		c0.6,0.7,1.4,1,2.3,1c1.2,0,2.2-0.5,3-1.5c0.1,0.4,0.4,0.8,0.9,1.1c0.4,0.3,1,0.4,1.6,0.4c0.5,0,1.1-0.1,1.7-0.4
		c0.6-0.3,1.1-0.7,1.6-1.2c0.5-0.5,0.9-1.1,1.2-1.9s0.5-1.6,0.5-2.5c0-2.4-0.8-4.2-2.4-5.7C596.3,2088.3,594.3,2087.6,591.7,2087.6z
		 M591.6,2093.6c0.5,0,0.9,0.2,1.2,0.5c0.3,0.3,0.4,0.8,0.4,1.5c0,0.9-0.3,1.8-0.9,2.7c-0.6,0.9-1.3,1.4-2.1,1.4
		c-0.5,0-0.9-0.2-1.2-0.6c-0.3-0.4-0.4-0.9-0.4-1.5c0-1,0.3-1.9,0.9-2.8C590.2,2094,590.9,2093.6,591.6,2093.6z"/>
</g>
</svg>
