<?xml version="1.0" encoding="utf-8"?>
<!-- Generator: Adobe Illustrator 19.1.0, SVG Export Plug-In . SVG Version: 6.00 Build 0)  -->
<!DOCTYPE svg PUBLIC "-//W3C//DTD SVG 1.1//EN" "http://www.w3.org/Graphics/SVG/1.1/DTD/svg11.dtd">
<svg version="1.1" id="Layer_2" xmlns="http://www.w3.org/2000/svg" xmlns:xlink="http://www.w3.org/1999/xlink" x="0px" y="0px"
	 viewBox="0 0 100 100" style="enable-background:new 0 0 100 100;" xml:space="preserve">
<style type="text/css">
	.st0{fill:#3C5A99;}
</style>
<path class="st0" d="M91.6,3.8H9.9c-2.8,0-5.1,2.3-5.1,5.1v81.7c0,2.8,2.3,5.1,5.1,5.1h44V60.2h-12V46.3h12V36.1
	c0-11.8,7.2-18.3,17.8-18.3c5.1,0,9.4,0.3,10.7,0.5v12.3h-7.3c-5.8,0-6.9,2.8-6.9,6.8v8.9h13.7l-1.8,13.9H68.2v35.5
	c0,0,20.4,0,23.4,0s5.1-2.2,5.1-5V8.9C96.7,6.1,94.4,3.8,91.6,3.8z"/>
</svg>
