<?xml version="1.0" encoding="utf-8"?>
<!-- Generator: Adobe Illustrator 19.1.0, SVG Export Plug-In . SVG Version: 6.00 Build 0)  -->
<svg version="1.1" id="Layer_1" xmlns="http://www.w3.org/2000/svg" xmlns:xlink="http://www.w3.org/1999/xlink" x="0px" y="0px"
	 viewBox="0 0 100 100" style="enable-background:new 0 0 100 100;" xml:space="preserve">
<style type="text/css">
	.st0{fill-rule:evenodd;clip-rule:evenodd;fill:#1EA361;}
	.st1{fill-rule:evenodd;clip-rule:evenodd;fill:#FEDB43;}
	.st2{fill-rule:evenodd;clip-rule:evenodd;fill:#5384C4;}
	.st3{fill-rule:evenodd;clip-rule:evenodd;fill:#FFFFFF;}
	.st4{fill-rule:evenodd;clip-rule:evenodd;fill:#C2C2C1;}
	.st5{fill:#F0EFEF;}
	.st6{fill:#DC4B3E;}
	.st7{fill:#802D28;}
</style>
<g>
	<path class="st0" d="M4.8,87.3V20.7c0-3.9,3.1-7,7-7h66.6L4.8,87.3z"/>
	<path class="st1" d="M4.8,88.7v-1.4l73.6-73.6h1.4c3.9,0,7,3.1,7,7v1.4L13.2,95.8h-1.4C8,95.8,4.8,92.6,4.8,88.7z"/>
	<polygon class="st2" points="13.2,95.8 45.8,63.1 78.4,95.8 	"/>
	<path class="st3" d="M78.4,95.8L45.3,62.6l8.4-8.4l33.1,33.1v1.4c0,3.9-3.1,7-7,7H78.4z"/>
	<polygon class="st4" points="86.9,87.3 54.2,54.7 86.9,22.1 	"/>
	<path class="st5" d="M19.4,22.8c4.2-1.9,9.4-1.1,12.8,2c-1.1,1.1-2.1,2.1-3.2,3.2c-3.4-3.4-9.8-1.8-11.3,2.7
		C15.6,35,19,40.8,23.9,40.8c3.2,0.4,6.4-1.8,7.1-5c-2.2,0-4.5,0-6.7,0c-0.1-1.4-0.1-2.8,0-4.1c3.7,0.1,7.6-0.2,11.2,0.2
		c0.3,2.7,0.1,5.6-1.4,8c-2.3,4.3-7.7,6.2-12.3,5.1c-5.7-1.2-9.9-7-9.2-12.8C13,28.2,15.7,24.5,19.4,22.8z"/>
	<g>
		<g>
			<g>
				<path class="st6" d="M72.5,2.2h2.7c6.6,0.4,13.1,3.6,17.2,9c2.6,3.4,4.1,7.6,4.4,11.8v1.6c-0.2,8.2-5.4,15-10,21.4
					c-5.1,7.2-9.9,15.1-11.2,24.1c-0.4,1.5,0.1,3.6-1.7,4.3c-0.4-0.3-0.9-0.6-1.2-1.1c-0.5-5-1.8-9.9-3.9-14.5
					C66.3,53.5,63,48.7,59.5,44c-2.1-2.8-4-5.7-5.7-8.8c-2.6-4.7-3.5-10.2-2.5-15.4c0.9-4.1,3-8,6-10.9C61.5,4.9,66.9,2.5,72.5,2.2z
					 M72,16.7c-3.2,0.7-5.8,3.5-6.1,6.8c-0.3,3,1.4,6.1,4.2,7.5c3,1.6,6.8,1.1,9.3-1.2c2.3-2,3.1-5.6,1.9-8.4
					C79.9,17.8,75.7,15.7,72,16.7z"/>
			</g>
		</g>
		<g>
			<path class="st7" d="M72,16.7c3.7-0.9,7.9,1.1,9.3,4.6c1.2,2.8,0.4,6.4-1.9,8.4c-2.5,2.3-6.3,2.7-9.3,1.2
				c-2.7-1.3-4.5-4.4-4.2-7.5C66.2,20.2,68.9,17.4,72,16.7z"/>
		</g>
	</g>
</g>
</svg>
