<?xml version="1.0" encoding="utf-8"?>
<!-- Generator: Adobe Illustrator 19.1.0, SVG Export Plug-In . SVG Version: 6.00 Build 0)  -->
<!DOCTYPE svg PUBLIC "-//W3C//DTD SVG 1.1//EN" "http://www.w3.org/Graphics/SVG/1.1/DTD/svg11.dtd">
<svg version="1.1" id="Layer_1" xmlns="http://www.w3.org/2000/svg" xmlns:xlink="http://www.w3.org/1999/xlink" x="0px" y="0px"
	 viewBox="0 0 100 100" style="enable-background:new 0 0 100 100;" xml:space="preserve">
<path d="M29.4,63.7c0,0-1,17.8-2.5,20.9c-0.3,1.5,1.9,13.5,24,13.5c5.9-0.2,26.1-3.1,26-16C75,75.3,73.3,65.8,73,62
	C70.6,65.7,49,76.5,29.4,63.7z"/>
<g>
	<path d="M75.5,40c-4.8-1.5-12-3.1-12-3.1s-9.8-2-20.3-3.7c-15.7-1.8-20.6,3.1-23.8,5.7c-8.1,9.5-5.3,14-4.4,15.9
		c3.9,5.9,8,5.8,14.1,6.8c11.5,2,23.4-1.9,27.5-3.2c20.7-6.7,30.1-12.4,30.1-12.4C88.4,42.9,80.3,41.5,75.5,40z M68.6,47.3
		c-3.1,1.4-11.1,4.1-17,5.2c-14.3,1.8-20-2-20.6-3.4C28.7,39.3,48.3,39,48.3,39c4.7,0.1,20.1,4,22.9,5.5
		C72.2,45.6,70.2,46.3,68.6,47.3z"/>
</g>
<polygon points="61.7,14.4 63.8,18.7 68.6,19.3 65.2,22.7 66.1,27.4 61.8,25.2 57.6,27.5 58.4,22.8 54.9,19.5 59.6,18.8 "/>
<polygon points="42.5,1.3 48.8,5.4 55.6,2.5 53.8,9.7 58.6,15.3 51.2,15.7 47.3,22.1 44.6,15.2 37.4,13.5 43.1,8.7 "/>
<polygon points="73,30.9 71.1,32.5 71.4,35 69.3,33.7 67,34.7 67.6,32.3 65.9,30.4 68.4,30.2 69.7,28.1 70.6,30.4 "/>
<polygon points="59.4,30.8 61.2,31 62.4,29.5 62.9,31.3 64.6,32 63,33 62.9,34.9 61.5,33.6 59.7,34.1 60.4,32.4 "/>
<polygon points="50.3,37 52.4,37.7 54.2,36.3 54.2,38.6 56.1,39.9 54,40.6 53.3,42.8 52,40.9 49.7,41 51,39.2 "/>
<polygon points="56.6,44.7 58.4,44.6 59.3,43 60,44.6 61.7,45 60.4,46.1 60.6,47.9 59.1,47 57.5,47.8 57.9,46 "/>
<polygon points="48.2,48.2 48.9,46.4 47.8,44.8 49.7,44.9 50.9,43.3 51.4,45.2 53.3,45.8 51.7,46.9 51.6,48.9 50.1,47.7 "/>
<polygon points="54.5,53 55,51.8 54.3,50.7 55.6,50.8 56.3,49.7 56.7,51 57.9,51.4 56.8,52.1 56.8,53.4 55.8,52.6 "/>
</svg>
