<?xml version="1.0" encoding="utf-8"?>
<!-- Generator: Adobe Illustrator 19.1.0, SVG Export Plug-In . SVG Version: 6.00 Build 0)  -->
<!DOCTYPE svg PUBLIC "-//W3C//DTD SVG 1.1//EN" "http://www.w3.org/Graphics/SVG/1.1/DTD/svg11.dtd">
<svg version="1.1" xmlns="http://www.w3.org/2000/svg" xmlns:xlink="http://www.w3.org/1999/xlink" x="0px" y="0px"
	 viewBox="0 0 100 100" style="enable-background:new 0 0 100 100;" xml:space="preserve">
<style type="text/css">
	.st0{fill:#F6EC13;}
	.st1{fill:#5D2B7A;}
</style>
<g id="SealBG">
	<circle class="st0" cx="50" cy="50.4" r="41.9"/>
</g>
<g id="SealFG">
	<path class="st1" d="M94.5,53.1l2.4-2.8l-2.4-2.8l2-3.1L93.8,42l1.6-3.3l-3-2.1l1.2-3.5l-3.2-1.7l0.7-3.6l-3.4-1.3l0.3-3.7L84.4,22
		l-0.2-3.7l-3.6-0.4l-0.6-3.6l-3.7,0l-1.1-3.5l-3.6,0.5L70,8.1l-3.5,1l-1.9-3.1l-3.4,1.4l-2.3-2.9l-3.2,1.8l-2.6-2.5l-2.9,2.2
		l-2.9-2.2l-2.6,2.5l-3.2-1.8l-2.3,2.9l-3.4-1.4L33.8,9l-3.5-1l-1.5,3.3l-3.6-0.5L24,14.4l-3.7,0l-0.6,3.6l-3.6,0.4L15.9,22
		l-3.6,0.9l0.3,3.7l-3.4,1.3l0.7,3.6l-3.2,1.7l1.2,3.5l-3,2.1L6.5,42l-2.7,2.5l2,3.1l-2.4,2.8l2.4,2.8l-2,3.1l2.7,2.5L4.9,62l3,2.1
		l-1.2,3.5l3.2,1.7l-0.7,3.6l3.4,1.3l-0.3,3.7l3.6,0.9l0.2,3.7l3.6,0.4l0.6,3.6l3.7,0l1.1,3.5l3.6-0.5l1.5,3.3l3.5-1l1.9,3.1
		l3.4-1.4l2.3,2.9l3.2-1.8l2.6,2.5l2.9-2.2l2.9,2.2l2.6-2.5l3.2,1.8l2.3-2.9l3.4,1.4l1.9-3.1l3.5,1l1.5-3.3l3.6,0.5l1.1-3.5l3.7,0
		l0.6-3.6l3.6-0.4l0.2-3.7l3.6-0.9l-0.3-3.7l3.4-1.3l-0.7-3.6l3.2-1.7l-1.2-3.5l3-2.1l-1.6-3.3l2.7-2.5L94.5,53.1z M50.1,90.8
		c-22.3,0-40.4-18.1-40.4-40.4C9.7,28,27.8,9.9,50.1,9.9c22.3,0,40.4,18.1,40.4,40.4C90.6,72.7,72.5,90.8,50.1,90.8z"/>
	<g>
		<path class="st1" d="M53.7,44.1l-1,0.3L52.2,46l-1-1.3l-1.6,0l0.9-1.2c-0.8-0.1-1.4-0.2-1.9-0.2c0,0-14.1,0.2-12.4,7.2
			c0.4,1,4.5,3.7,14.8,2.5c0.8-0.2,1.6-0.3,2.4-0.6l-0.5-0.7l0.9,0l0.6-0.7l0.2,0.9l0.4,0.1c3.3-0.9,6.7-2.1,8.2-2.8
			c1.1-0.7,2.6-1.2,1.9-1.9C63.7,46.6,58.2,45,53.7,44.1z M51,49l0,1.4l-1.1-0.9l-1.4,0.4l0.5-1.3l-0.8-1.2l1.4,0.1l0.9-1.1l0.4,1.4
			l1.3,0.5L51,49z M57.5,49.7l-1.1-0.6l-1.2,0.5l0.3-1.2l-0.9-0.9l1.3-0.1l0.6-1.1l0.5,1.2l1.3,0.2l-1,0.8L57.5,49.7z"/>
		<path class="st1" d="M50.1,10.4c-22,0-39.9,17.9-39.9,39.9c0,22,17.9,39.9,39.9,39.9c22,0,39.9-17.9,39.9-39.9
			C90,28.3,72.2,10.4,50.1,10.4z M64.6,37.1l1.7,0.4L65,38.6l0.2,1.8l-1.5-0.9L62,40.2l0.4-1.7l-1.2-1.3l1.8-0.1l0.9-1.5L64.6,37.1z
			 M58.2,25.6l1.6,3.1l3.4,0.4l-2.4,2.4l0.6,3.4l-3.1-1.6l-3,1.6l0.5-3.4l-2.5-2.4l3.4-0.5L58.2,25.6z M56.5,37.4l1.4,0.1l0.9-1.1
			l0.3,1.3l1.3,0.5L59.2,39l-0.1,1.4l-1-0.9l-1.3,0.4l0.5-1.3L56.5,37.4z M44.4,16.2l4.5,2.9l4.9-2.1l-1.4,5.2l3.5,4.1l-5.3,0.3
			l-2.8,4.6l-1.9-5l-5.2-1.2l4.1-3.4L44.4,16.2z M50.5,85.8c-15.9,0-17.5-8.6-17.3-9.7c1.1-2.2,1.8-15,1.8-15
			c14.1,9.2,29.7,1.4,31.4-1.3c0.2,2.8,1.4,9.6,2.8,14.5C69.2,83.6,54.7,85.6,50.5,85.8z M76.2,48.3c0,0-6.8,4.1-21.7,9
			C51.6,58.2,43,61,34.7,59.5c-4.4-0.7-7.4-0.6-10.1-4.9c-0.7-1.4-2.6-4.7,3.2-11.5c2.3-1.8,5.8-5.3,17.2-4.1
			c7.5,1.2,14.6,2.7,14.6,2.7s5.2,1.1,8.6,2.2C71.6,45.1,77.4,46.1,76.2,48.3z"/>
	</g>
</g>
</svg>
