<?xml version="1.0" encoding="utf-8"?>
<!-- Generator: Adobe Illustrator 19.1.0, SVG Export Plug-In . SVG Version: 6.00 Build 0)  -->
<!DOCTYPE svg PUBLIC "-//W3C//DTD SVG 1.1//EN" "http://www.w3.org/Graphics/SVG/1.1/DTD/svg11.dtd">
<svg version="1.1" id="Layer_3" xmlns="http://www.w3.org/2000/svg" xmlns:xlink="http://www.w3.org/1999/xlink" x="0px" y="0px"
	 viewBox="0 0 100 100" style="enable-background:new 0 0 100 100;" xml:space="preserve">
<style type="text/css">
	.st0{fill:#385988;}
</style>
<path class="st0" d="M85.9,3.8H15.7c-6,0-10.9,4.9-10.9,10.9v70.2c0,6,4.9,10.9,10.9,10.9h70.1c6,0,10.9-4.9,10.9-10.9V14.7
	C96.8,8.7,91.9,3.8,85.9,3.8z M68.7,16.9c0-1.4,1.2-2.6,2.6-2.6h12.4c1.4,0,2.6,1.1,2.6,2.6v12.4c0,1.4-1.2,2.6-2.6,2.6H71.3
	c-1.4,0-2.6-1.1-2.6-2.6V16.9z M50.9,32.3c9.8,0,17.7,7.9,17.7,17.7c0,9.7-7.9,17.7-17.7,17.7c-9.8,0-17.7-7.9-17.7-17.7
	C33.2,40.2,41.1,32.3,50.9,32.3z M86.5,82.5c0,1.4-1.2,2.6-2.6,2.6H17.9c-1.4,0-2.6-1.1-2.6-2.6v-40h8.6c-0.6,2.4-1,4.8-1,7.4
	c0,15.4,12.6,27.9,28,27.9c15.4,0,28-12.5,28-27.9c0-2.6-0.3-5-1-7.4h8.6V82.5z"/>
</svg>
