<?xml version="1.0" encoding="utf-8"?>
<!-- Generator: Adobe Illustrator 19.1.0, SVG Export Plug-In . SVG Version: 6.00 Build 0)  -->
<!DOCTYPE svg PUBLIC "-//W3C//DTD SVG 1.1//EN" "http://www.w3.org/Graphics/SVG/1.1/DTD/svg11.dtd">
<svg version="1.1" id="Layer_1" xmlns="http://www.w3.org/2000/svg" xmlns:xlink="http://www.w3.org/1999/xlink" x="0px" y="0px"
	 viewBox="0 0 300 47.1" style="enable-background:new 0 0 300 47.1;" xml:space="preserve">
<g>
	<path d="M7.6,28h2V16.4h-2v-6.2h10.7c7,0,11.8,5,11.8,11.9c0,7-4.8,11.9-11.8,11.9H7.6V28z M17.6,16.4V28c2.1-0.2,4.7-1.9,4.7-5.8
		C22.3,18.3,19.9,16.6,17.6,16.4z"/>
	<path d="M31.9,24.8c0-8.2,5.5-11,12.2-11c5.1,0,9.5,2.1,9.5,2.1v10.7c0,1.5,1,1.6,2,1.3v6c0,0-1.5,0.8-4.3,0.8
		c-2.5,0-3.9-0.9-4.7-2.2c-1.8,1.5-4,2.2-6,2.2C36.1,34.7,31.9,31.8,31.9,24.8z M45.6,19.7c0,0-1-0.5-2.3-0.5c-1.6,0-3.5,1-3.5,5
		c0,4.1,1.6,5.1,3.3,5.1c0.9,0,1.8-0.3,2.5-0.6V19.7z"/>
	<path d="M72.2,22.4c0-1.1-0.7-1.8-1.7-1.8c-1.3,0-2.7,0.9-3.3,1.3V28h2.1v6.2H57.3V28h2.1v-7.5h-2.1v-6.2h10v2.3
		c1.5-1.3,3.8-2.8,7.2-2.8c4.2,0,5.8,3.8,5.8,6.7V28h2v6.2H70.2V28h2.1V22.4z"/>
	<path d="M93,13.8c5.9,0,9.4,2.5,9.4,2.5V22h-6.2c0,0-0.2-2.5-2.4-2.5c-1.8,0-2.7,1.6-2.7,4.3c0,3.1,2.2,4.8,4.4,4.8
		c3,0,5.9-1.7,5.9-1.7l1.6,5.3c0,0-3.3,2.6-8.9,2.6c-6.4,0-11-3.7-11-10.5C83.2,17.7,87.2,13.8,93,13.8z"/>
	<path d="M124.5,26.5l1.4,5.4c0,0-3.1,2.9-9.5,2.9c-6.7,0-11.7-3-11.7-10.5c0-7.7,5-10.5,10.5-10.5c8.1,0,10.8,4,10.8,9.6
		c0,0.6,0,1.1-0.1,1.7h-13.2c0.5,2.7,2.6,3.5,5.1,3.5C121.3,28.5,124.5,26.5,124.5,26.5z M117.8,22.6c0-2.6-1-3.5-2.5-3.5
		c-1.5,0-2.5,0.8-2.7,3.5H117.8z"/>
	<path d="M151.9,22.4c0-1.1-0.7-1.8-1.8-1.8c-1.3,0-2.7,0.9-3.3,1.3V28h2.1v6.2h-12.1V28h2.1v-7.5h-2.1v-6.2h10v2.3
		c1.5-1.3,3.8-2.8,7.2-2.8c4.2,0,5.8,3.8,5.8,6.7V28h2v6.2h-12.1V28h2.1V22.4z"/>
	<path d="M173.1,10.3h15.7v6.2h-1.2l4,10.8l4-10.8h-1.2v-6.2h15.7v6.2h-2V28h2v6.2H198V28h2v-9.1l-5.8,15.7h-5.4L183,18.8V28h2v6.2
		h-11.9V28h2V16.4h-2V10.3z"/>
	<path d="M211.6,24.8c0-8.2,5.5-11,12.2-11c5.1,0,9.5,2.1,9.5,2.1v10.7c0,1.5,1,1.6,2,1.3v6c0,0-1.5,0.8-4.3,0.8
		c-2.5,0-3.9-0.9-4.7-2.2c-1.8,1.5-4,2.2-6,2.2C215.8,34.7,211.6,31.8,211.6,24.8z M225.4,19.7c0,0-1-0.5-2.3-0.5
		c-1.6,0-3.5,1-3.5,5c0,4.1,1.6,5.1,3.3,5.1c0.9,0,1.8-0.3,2.5-0.6V19.7z"/>
	<path d="M258.7,35c0,5.3-4.1,8.6-11.4,8.6c-6.3,0-10.8-2.5-10.8-2.5l1.7-5.6c5,2.4,12.5,2,12.5-2.1V33c-1.5,1.2-3.4,1.8-5.3,1.8
		c-5.1,0-8.5-3.1-8.5-10.6c0-7.6,5.4-10.4,10.9-10.4c5.5,0,10.8,2.1,10.8,2.1V29h0V35z M250.8,19.7c0,0-1.1-0.5-2.5-0.5
		c-1.6,0-3.3,1-3.3,5c0,6.4,4.1,5.3,5.8,4.5V19.7z"/>
	<path d="M261.7,28h2v-7.5h-2v-6.2h10V28h2v6.2h-12V28z M267.6,4c2.6,0,4.7,2.1,4.7,4.7c0,2.6-2.1,4.7-4.7,4.7c-2.5,0-4.6-2-4.6-4.7
		C263.1,6.1,265.1,4,267.6,4z"/>
	<path d="M284.5,13.8c5.9,0,9.4,2.5,9.4,2.5V22h-6.2c0,0-0.2-2.5-2.4-2.5c-1.8,0-2.7,1.6-2.7,4.3c0,3.1,2.2,4.8,4.4,4.8
		c3,0,5.9-1.7,5.9-1.7l1.6,5.3c0,0-3.3,2.6-8.9,2.6c-6.4,0-11-3.7-11-10.5C274.7,17.7,278.6,13.8,284.5,13.8z"/>
</g>
</svg>
