<?xml version="1.0" encoding="utf-8"?>
<!-- Generator: Adobe Illustrator 19.1.0, SVG Export Plug-In . SVG Version: 6.00 Build 0)  -->
<!DOCTYPE svg PUBLIC "-//W3C//DTD SVG 1.1//EN" "http://www.w3.org/Graphics/SVG/1.1/DTD/svg11.dtd">
<svg version="1.1" id="Layer_4" xmlns="http://www.w3.org/2000/svg" xmlns:xlink="http://www.w3.org/1999/xlink" x="0px" y="0px"
	 viewBox="0 0 100 100" style="enable-background:new 0 0 100 100;" xml:space="preserve">
<path d="M91.7,67.6c-6.4,0-12.5-1-18.3-2.9c-1.8-0.5-3.8-0.1-5.2,1.2L57,77.2C42.5,69.8,30.7,58,23.3,43.5l11.2-11.3
	c1.4-1.3,1.8-3.3,1.3-5.1c-1.9-5.7-2.9-11.9-2.9-18.2c0-2.8-2.3-5.1-5.1-5.1H9.9C7.1,3.7,4.8,6,4.8,8.8c0,48,38.9,86.9,86.9,86.9
	c2.8,0,5.1-2.3,5.1-5.1V72.8C96.9,69.9,94.5,67.6,91.7,67.6z"/>
</svg>
